<?xml version="1.0" encoding="utf-8"?>
<!-- Generator: Adobe Illustrator 25.0.1, SVG Export Plug-In . SVG Version: 6.00 Build 0)  -->
<svg version="1.1" id="Layer_1" xmlns="http://www.w3.org/2000/svg" xmlns:xlink="http://www.w3.org/1999/xlink" x="0px" y="0px"
	 viewBox="0 0 25.5 33.6" style="enable-background:new 0 0 25.5 33.6;" xml:space="preserve">
<style type="text/css">
	.st0{fill:#0E49B5;}
</style>
<path class="st0" d="M23.7,18.8c-0.5,0.9-10.9,14.6-10.9,14.6S2.4,19.7,1.9,18.8l0,0l0,0c-1-1.8-1.6-3.9-1.6-6.1
	c0-6.9,5.6-12.5,12.5-12.5s12.5,5.6,12.5,12.5C25.3,14.9,24.7,16.9,23.7,18.8L23.7,18.8L23.7,18.8z M12.8,3.9
	c-4.6,0-8.4,3.8-8.4,8.4s3.8,8.4,8.4,8.4s8.4-3.8,8.4-8.4S17.4,3.9,12.8,3.9z"/>
</svg>
